<svg width="197" height="65" viewBox="0 0 197 65" version="1.1" xmlns="http://www.w3.org/2000/svg" xmlns:xlink="http://www.w3.org/1999/xlink"><title>Artboard 1</title><desc>Created with Sketch.</desc><g id="Page-1" stroke="none" stroke-width="1" fill="none" fill-rule="evenodd"><g id="Artboard-1" fill="#00B4D2"><g id="Vector-Smart-Object"><path d="M0,37.6479992 C0,28.3447791 6.66894105,21.8007039 15.9254871,21.8007039 C23.3712082,21.8007039 28.0328857,26.5481725 28.0328857,30.6542783 C28.0328857,33.7988339 26.4135137,36.044098 23.4360229,36.044098 C20.6519794,36.044098 19.0336045,34.1190212 19.0336045,31.809522 C19.0336045,29.9486803 20.4575351,28.4090142 21.6880185,27.8961216 C20.7806118,26.5481725 18.9687897,25.521399 16.1199314,25.521399 C11.7175129,25.521399 8.15768641,29.5642579 8.15768641,36.9424013 C8.15768641,43.807652 11.0703624,47.9779928 16.7022671,47.9779928 C20.2630908,47.9779928 22.9823196,45.9244458 24.3414354,42.0110454 L28.2911476,42.0110454 C26.867217,48.5551206 22.2055395,52.6612263 15.148707,52.6612263 C5.56708999,52.6612263 0,46.3740916 0,37.6479992" id="Fill-1"/><path d="M54.3162713,37.1988476 C54.3162713,29.0508712 51.5970425,25.6503634 46.8705502,25.6503634 C42.145055,25.6503634 39.9443443,29.1151063 39.9443443,37.1988476 C39.9443443,45.2835771 42.5987584,48.8115669 47.3890683,48.8115669 C51.9849339,48.8115669 54.3162713,45.2835771 54.3162713,37.1988476 M31.6570284,37.3273178 C31.6570284,28.216803 38.0667104,21.8002098 47.1298092,21.8002098 C56.5169819,21.8002098 62.6025901,27.9598626 62.6025901,37.0703774 C62.6025901,46.1808921 56.1939052,52.6617204 47.1298092,52.6617204 C37.6778218,52.6617204 31.6570284,46.4378326 31.6570284,37.3273178" id="Fill-3"/><path d="M89.4696077,37.1988476 C89.4696077,29.0508712 86.7503789,25.6503634 82.0238866,25.6503634 C77.2983914,25.6503634 75.0976807,29.1151063 75.0976807,37.1988476 C75.0976807,45.2835771 77.7520948,48.8115669 82.5424047,48.8115669 C87.1382703,48.8115669 89.4696077,45.2835771 89.4696077,37.1988476 M66.8103648,37.3273178 C66.8103648,28.216803 73.2200468,21.8002098 82.2831456,21.8002098 C91.6703183,21.8002098 97.7559265,27.9598626 97.7559265,37.0703774 C97.7559265,46.1808921 91.3472416,52.6617204 82.2831456,52.6617204 C72.8311582,52.6617204 66.8103648,46.4378326 66.8103648,37.3273178" id="Fill-5"/><path d="M125.075251,36.6215222 C125.075251,29.8847417 122.550467,26.6127041 118.731381,26.6127041 C114.976113,26.6127041 111.609734,31.1674674 111.609734,37.3913552 C111.609734,43.0381154 113.940074,47.4644084 118.731381,47.4644084 C122.874541,47.4644084 125.075251,43.6794782 125.075251,36.6215222 L125.075251,36.6215222 Z M99.8274064,60.4754766 L104.423272,60.4754766 L104.423272,27.0613616 L99.8274064,27.0613616 L99.8274064,22.313893 L111.609734,22.313893 L111.609734,29.2433788 C113.681812,24.2389698 117.242636,21.8000122 121.644057,21.8000122 C124.81699,21.8000122 127.341774,22.9552559 129.283226,24.8803327 C132.002454,27.5752425 133.232938,31.8098185 133.232938,36.6857573 C133.232938,41.7544014 131.679378,46.0532125 128.960149,48.7481224 C126.888071,50.8006811 124.233657,52.0201599 121.320981,52.0201599 C116.853747,52.0201599 113.681812,49.7739076 111.933808,46.7588105 L111.933808,60.4754766 L117.889787,60.4754766 L117.889787,65.2229452 L99.8274064,65.2229452 L99.8274064,60.4754766 Z" id="Fill-7"/><path d="M145.856262,34.504333 L158.804258,34.504333 C158.416367,28.7300909 156.603548,25.5865236 152.525203,25.5865236 C148.83475,25.5865236 146.37478,27.9602579 145.856262,34.504333 L145.856262,34.504333 Z M145.791447,37.9048408 C146.050706,45.1545139 149.094009,48.1063642 154.467652,48.1063642 C158.027478,48.1063642 160.617078,46.5666981 162.235452,42.7807796 L166.12035,42.7807796 C164.630607,49.0689026 160.164371,52.6611275 152.783465,52.6611275 C143.332475,52.6611275 137.764388,46.2455225 137.764388,37.5194302 C137.764388,28.5373856 144.17407,21.8006051 152.913095,21.8006051 C162.365082,21.8006051 166.637871,29.3072187 166.313797,37.9048408 L145.791447,37.9048408 Z" id="Fill-9"/><path d="M170.586087,47.2719008 L175.118135,47.2719008 L175.118135,27.0615593 L170.586087,27.0615593 L170.586087,22.3140907 L182.369412,22.3140907 L182.369412,29.5637638 C183.98679,24.3666494 187.742058,21.8644449 191.432511,21.8644449 C194.92852,21.8644449 196.999601,24.3666494 196.999601,27.2542646 C196.999601,29.8849393 195.121967,32.0017332 192.597183,32.0017332 C190.072398,32.0017332 188.129949,30.5263022 188.129949,27.8956275 C188.129949,27.6396753 188.194764,27.3184997 188.259579,27.0615593 C185.864424,27.0615593 183.793343,29.7564691 182.692489,33.4781525 L182.692489,47.2719008 L188.324394,47.2719008 L188.324394,52.0193694 L170.586087,52.0193694 L170.586087,47.2719008 Z" id="Fill-11"/><path d="M52.8892495,11.2987579 C51.6418145,14.3672196 50.012471,15.5610043 48.3572015,15.5610043 C46.6201657,15.5610043 45.4943831,14.4452899 45.4943831,12.5953188 C45.4943831,9.40728099 47.6183131,6.24987837 47.6183131,4.08169641 C47.6183131,3.34842795 47.2962336,3.02922887 46.7487981,3.02922887 C45.3328447,3.02922887 42.5338439,5.4523748 39.960199,15.2427935 L36.1640479,15.2427935 L38.4156132,6.82404141 C38.7047868,5.77157387 38.8663252,5.00668197 38.8663252,4.40089549 C38.8663252,3.63501536 38.6090604,3.02922887 37.9010837,3.02922887 C36.4213127,3.02922887 33.6532235,5.4523748 31.0795787,15.2427935 L27.2186128,15.2427935 L29.9857048,4.91082343 C30.4683255,3.09346398 30.371602,2.58353605 29.7922577,2.58353605 C29.1959618,2.58353605 28.5368455,3.47393347 27.8149087,4.85548241 L26.2613485,4.23882537 C27.5347094,1.70005625 29.0134833,0.255260437 30.9190375,0.255260437 C32.3020849,0.255260437 33.2673264,1.24349287 33.2673264,3.22094597 C33.2673264,4.14494329 33.0738792,5.29326938 32.5922556,6.75980631 L32.8166144,6.85566485 C34.9405445,2.36019552 37.3217394,0.223636999 39.5094871,0.223636999 C41.2784317,0.223636999 42.2117643,1.40358652 42.2117643,3.31680451 C42.2117643,4.2091784 41.9544996,5.29326938 41.472876,6.75980631 L41.6972348,6.85566485 C43.8211649,2.36019552 46.2013626,0.223636999 48.486831,0.223636999 C50.2567728,0.223636999 51.3825554,1.62692705 51.3825554,3.54014504 C51.3825554,6.24987837 49.0013606,10.3312783 49.0013606,12.277108 C49.0013606,12.7554125 49.1948077,12.978753 49.5477989,12.978753 C50.119166,12.978753 50.689536,12.2504257 51.3765725,10.6979125 L52.8892495,11.2987579 Z" id="Fill-13"/><path d="M54.5183936,4.15354091 C55.781783,1.66813635 57.2485911,0.254963968 59.132208,0.254963968 C60.5162525,0.254963968 61.481494,1.24418463 61.481494,3.2206495 C61.481494,4.14563505 61.2880469,5.26134947 60.8383321,6.66463952 L61.0955968,6.76049807 C62.961265,2.55161614 64.5058508,0.22334053 66.7584133,0.22334053 C68.1095519,0.22334053 69.1067022,1.14832609 69.1067022,2.64648645 C69.1067022,4.2414936 68.0776431,5.51631344 66.7903221,5.51631344 C65.6635423,5.51631344 64.7950244,4.78304497 64.8598391,3.44399003 C63.9265065,3.82643598 61.6101264,6.53715754 59.2937463,15.242497 L55.4327804,15.242497 L58.1998724,4.91052696 C58.6824932,3.09316751 58.5857696,2.58323958 58.0064253,2.58323958 C57.4220952,2.58323958 56.7789333,3.4370724 56.0739481,4.76920972 L54.5183936,4.15354091 Z" id="Fill-15"/><path d="M65.5978301,13.4885821 C65.5978301,12.212774 66.5630715,10.8104722 68.0747513,10.8104722 C69.2972576,10.8104722 70.2305902,11.6712227 70.2305902,13.0745127 C70.2305902,14.3493326 69.2653488,15.7526226 67.7526718,15.7526226 C66.5301656,15.7526226 65.5978301,14.8918722 65.5978301,13.4885821" id="Fill-17"/></g></g></g></svg>